<?xml version="1.0" encoding="UTF-8" standalone="no"?>
<!-- Created with Inkscape (http://www.inkscape.org/) -->

<svg
   width="512"
   height="512.00024"
   viewBox="0 0 512 512.00024"
   version="1.1"
   id="svg1"
   inkscape:export-filename="logo_f01.svg"
   inkscape:export-xdpi="96"
   inkscape:export-ydpi="96"
   xmlns:inkscape="http://www.inkscape.org/namespaces/inkscape"
   xmlns:sodipodi="http://sodipodi.sourceforge.net/DTD/sodipodi-0.dtd"
   xmlns="http://www.w3.org/2000/svg"
   xmlns:svg="http://www.w3.org/2000/svg">
  <sodipodi:namedview
     id="namedview1"
     pagecolor="#505050"
     bordercolor="#eeeeee"
     borderopacity="1"
     inkscape:showpageshadow="0"
     inkscape:pageopacity="0"
     inkscape:pagecheckerboard="0"
     inkscape:deskcolor="#505050"
     inkscape:document-units="px">
    <inkscape:page
       x="0"
       y="0"
       width="512"
       height="512.00024"
       id="page2"
       margin="0"
       bleed="0" />
  </sodipodi:namedview>
  <defs
     id="defs1" />
  <g
     inkscape:label="Layer 1"
     inkscape:groupmode="layer"
     id="layer1">
    <path
       d="m 90.732422,451.50586 -3.38086,-117.32227 h 28.021488 c 5.76576,20.75675 12.45364,39.55265 20.06445,56.38868 7.84144,16.60539 18.10438,32.1734 30.78906,46.70312 11.99279,13.6072 25.94587,24.44746 41.85938,32.51953 16.14414,8.07207 34.82496,12.10742 56.04297,12.10742 15.9135,0 29.75151,-2.07521 41.51367,-6.22656 11.99279,-4.15135 21.68037,-10.03177 29.06054,-17.64258 7.38018,-7.6108 12.80031,-16.49093 16.25977,-26.63867 3.69009,-10.37837 5.53516,-22.25624 5.53516,-35.63281 0,-19.6036 -5.53521,-37.82218 -16.60547,-54.6582 -11.07027,-17.06666 -27.5608,-29.98214 -49.47071,-38.7461 -14.99098,-5.99639 -32.1739,-12.5692 -51.54687,-19.71875 -19.37297,-7.38018 -36.09365,-14.30016 -50.16211,-20.75781 -27.67566,-12.45405 -49.23916,-28.71249 -64.69141,-48.77734 -15.22161,-20.29549 -22.83203,-46.70375 -22.83203,-79.22266 0,-18.68107 3.80521,-36.094144 11.41602,-52.238282 C 120.21628,65.498441 131.05654,51.08507 145.125,38.400391 158.50157,26.407603 174.29972,17.067192 192.51953,10.378906 202.60215,6.5500641 212.9308,3.780321 223.50781,2.0703125 A 256,256 0 0 0 0,256 256,256 0 0 0 90.732422,451.50586 Z"
       style="fill:#ffffff;stroke-width:10.24"
       id="path21" />
    <path
       d="m 401.71094,45.513672 2.18164,128.498048 H 375.87109 C 370.79722,155.33065 365.02992,137.45533 358.57227,120.38867 352.34524,103.32201 344.15946,87.871035 334.01172,74.033203 324.09461,60.656632 311.98464,50.046516 297.68555,42.205078 283.38645,34.133009 265.86026,30.097656 245.10352,30.097656 c -21.90991,0 -40.59268,7.0331 -56.04493,21.101563 -15.45224,14.068462 -23.17773,31.251388 -23.17773,51.546871 0,21.21801 4.95789,38.86123 14.875,52.92969 9.91711,13.83783 24.33244,25.25346 43.24414,34.24805 16.83603,8.07207 33.32657,15.10712 49.4707,21.10351 16.37477,5.76577 32.17292,11.99336 47.39453,18.68164 13.83784,5.9964 27.09853,12.79935 39.78321,20.41016 12.91531,7.61081 24.10079,16.49093 33.55664,26.63867 10.37837,11.53153 17.98879,24.2149 22.83203,38.05274 5.07387,13.6072 7.61133,29.52042 7.61133,47.74023 0,43.35854 -16.0283,79.10722 -48.08594,107.24414 -27.13625,23.81743 -59.80927,37.55456 -98.01758,41.21094 A 256,256 0 0 0 512,256 256,256 0 0 0 401.71094,45.513672 Z"
       style="fill:#000000;stroke-width:10.24"
       id="path19" />
    <path
       d="M 278.54492,511.00586 A 256,256 0 0 1 256.63477,512 c 0.19231,5.2e-4 0.38386,0 0.57617,0 7.29357,0 14.40458,-0.33102 21.33398,-0.99414 z"
       style="font-size:708.497px;font-family:Georgia;-inkscape-font-specification:Georgia;fill:#ffd42a;stroke-width:18.6196"
       id="path20" />
  </g>
</svg>
